<svg id="visual" viewBox="0 0 900 600" width="900" height="600" xmlns="http://www.w3.org/2000/svg" xmlns:xlink="http://www.w3.org/1999/xlink" version="1.1"><rect x="0" y="0" width="900" height="600" fill="#000000"></rect><defs><linearGradient id="grad1_0" x1="33.3%" y1="0%" x2="100%" y2="100%"><stop offset="20%" stop-color="#64f70f" stop-opacity="1"></stop><stop offset="80%" stop-color="#64f70f" stop-opacity="1"></stop></linearGradient></defs><defs><linearGradient id="grad1_1" x1="33.3%" y1="0%" x2="100%" y2="100%"><stop offset="20%" stop-color="#64f70f" stop-opacity="1"></stop><stop offset="80%" stop-color="#00b900" stop-opacity="1"></stop></linearGradient></defs><defs><linearGradient id="grad1_2" x1="33.3%" y1="0%" x2="100%" y2="100%"><stop offset="20%" stop-color="#007d00" stop-opacity="1"></stop><stop offset="80%" stop-color="#00b900" stop-opacity="1"></stop></linearGradient></defs><defs><linearGradient id="grad1_3" x1="33.3%" y1="0%" x2="100%" y2="100%"><stop offset="20%" stop-color="#007d00" stop-opacity="1"></stop><stop offset="80%" stop-color="#004400" stop-opacity="1"></stop></linearGradient></defs><defs><linearGradient id="grad1_4" x1="33.3%" y1="0%" x2="100%" y2="100%"><stop offset="20%" stop-color="#000000" stop-opacity="1"></stop><stop offset="80%" stop-color="#004400" stop-opacity="1"></stop></linearGradient></defs><defs><linearGradient id="grad2_0" x1="0%" y1="0%" x2="66.7%" y2="100%"><stop offset="20%" stop-color="#64f70f" stop-opacity="1"></stop><stop offset="80%" stop-color="#64f70f" stop-opacity="1"></stop></linearGradient></defs><defs><linearGradient id="grad2_1" x1="0%" y1="0%" x2="66.7%" y2="100%"><stop offset="20%" stop-color="#00b900" stop-opacity="1"></stop><stop offset="80%" stop-color="#64f70f" stop-opacity="1"></stop></linearGradient></defs><defs><linearGradient id="grad2_2" x1="0%" y1="0%" x2="66.7%" y2="100%"><stop offset="20%" stop-color="#00b900" stop-opacity="1"></stop><stop offset="80%" stop-color="#007d00" stop-opacity="1"></stop></linearGradient></defs><defs><linearGradient id="grad2_3" x1="0%" y1="0%" x2="66.7%" y2="100%"><stop offset="20%" stop-color="#004400" stop-opacity="1"></stop><stop offset="80%" stop-color="#007d00" stop-opacity="1"></stop></linearGradient></defs><defs><linearGradient id="grad2_4" x1="0%" y1="0%" x2="66.7%" y2="100%"><stop offset="20%" stop-color="#004400" stop-opacity="1"></stop><stop offset="80%" stop-color="#000000" stop-opacity="1"></stop></linearGradient></defs><g transform="translate(900, 0)"><path d="M0 378.6C-56.7 380.1 -113.4 381.7 -144.9 349.8C-176.3 317.8 -182.4 252.5 -216.4 216.4C-250.3 180.3 -312 173.5 -343.7 142.4C-375.3 111.2 -377 55.6 -378.6 0L0 0Z" fill="#002e00"></path><path d="M0 302.9C-45.4 304.1 -90.8 305.3 -115.9 279.8C-141 254.3 -146 202 -173.1 173.1C-200.2 144.2 -249.6 138.8 -274.9 113.9C-300.3 88.9 -301.6 44.5 -302.9 0L0 0Z" fill="#006000"></path><path d="M0 227.1C-34 228.1 -68.1 229 -86.9 209.9C-105.8 190.7 -109.5 151.5 -129.8 129.8C-150.2 108.2 -187.2 104.1 -206.2 85.4C-225.2 66.7 -226.2 33.4 -227.1 0L0 0Z" fill="#009a00"></path><path d="M0 151.4C-22.7 152.1 -45.4 152.7 -58 139.9C-70.5 127.1 -73 101 -86.5 86.5C-100.1 72.1 -124.8 69.4 -137.5 56.9C-150.1 44.5 -150.8 22.2 -151.4 0L0 0Z" fill="#3ad700"></path><path d="M0 75.7C-11.3 76 -22.7 76.3 -29 70C-35.3 63.6 -36.5 50.5 -43.3 43.3C-50.1 36.1 -62.4 34.7 -68.7 28.5C-75.1 22.2 -75.4 11.1 -75.7 0L0 0Z" fill="#64f70f"></path></g><g transform="translate(0, 600)"><path d="M0 -378.6C50 -373.4 99.9 -368.1 144.9 -349.8C189.8 -331.4 229.8 -299.8 263.8 -263.8C297.7 -227.7 325.6 -187.1 343.7 -142.4C361.8 -97.6 370.2 -48.8 378.6 0L0 0Z" fill="#002e00"></path><path d="M0 -302.9C40 -298.7 79.9 -294.5 115.9 -279.8C151.9 -265.1 183.9 -239.9 211 -211C238.1 -182.1 260.4 -149.7 274.9 -113.9C289.5 -78.1 296.2 -39.1 302.9 0L0 0Z" fill="#006000"></path><path d="M0 -227.1C30 -224 59.9 -220.9 86.9 -209.9C113.9 -198.8 137.9 -179.9 158.3 -158.3C178.6 -136.6 195.3 -112.2 206.2 -85.4C217.1 -58.6 222.1 -29.3 227.1 0L0 0Z" fill="#009a00"></path><path d="M0 -151.4C20 -149.3 40 -147.3 58 -139.9C75.9 -132.6 91.9 -119.9 105.5 -105.5C119.1 -91.1 130.2 -74.8 137.5 -56.9C144.7 -39.1 148.1 -19.5 151.4 0L0 0Z" fill="#3ad700"></path><path d="M0 -75.7C10 -74.7 20 -73.6 29 -70C38 -66.3 46 -60 52.8 -52.8C59.5 -45.5 65.1 -37.4 68.7 -28.5C72.4 -19.5 74 -9.8 75.7 0L0 0Z" fill="#64f70f"></path></g></svg>