<svg id="visual" viewBox="0 0 900 600" width="900" height="600" xmlns="http://www.w3.org/2000/svg" xmlns:xlink="http://www.w3.org/1999/xlink" version="1.1"><path d="M0 37L21.5 36C43 35 86 33 128.8 31C171.7 29 214.3 27 257.2 26C300 25 343 25 385.8 28C428.7 31 471.3 37 514.2 38C557 39 600 35 642.8 33C685.7 31 728.3 31 771.2 32C814 33 857 35 878.5 36L900 37L900 0L878.5 0C857 0 814 0 771.2 0C728.3 0 685.7 0 642.8 0C600 0 557 0 514.2 0C471.3 0 428.7 0 385.8 0C343 0 300 0 257.2 0C214.3 0 171.7 0 128.8 0C86 0 43 0 21.5 0L0 0Z" fill="#000000"></path><path d="M0 91L21.5 96C43 101 86 111 128.8 116C171.7 121 214.3 121 257.2 120C300 119 343 117 385.8 118C428.7 119 471.3 123 514.2 121C557 119 600 111 642.8 110C685.7 109 728.3 115 771.2 116C814 117 857 113 878.5 111L900 109L900 35L878.5 34C857 33 814 31 771.2 30C728.3 29 685.7 29 642.8 31C600 33 557 37 514.2 36C471.3 35 428.7 29 385.8 26C343 23 300 23 257.2 24C214.3 25 171.7 27 128.8 29C86 31 43 33 21.5 34L0 35Z" fill="#002e7e"></path><path d="M0 151L21.5 159C43 167 86 183 128.8 189C171.7 195 214.3 191 257.2 190C300 189 343 191 385.8 190C428.7 189 471.3 185 514.2 178C557 171 600 161 642.8 159C685.7 157 728.3 163 771.2 169C814 175 857 181 878.5 184L900 187L900 107L878.5 109C857 111 814 115 771.2 114C728.3 113 685.7 107 642.8 108C600 109 557 117 514.2 119C471.3 121 428.7 117 385.8 116C343 115 300 117 257.2 118C214.3 119 171.7 119 128.8 114C86 109 43 99 21.5 94L0 89Z" fill="#2b5ab4"></path><path d="M0 259L21.5 270C43 281 86 303 128.8 309C171.7 315 214.3 305 257.2 303C300 301 343 307 385.8 305C428.7 303 471.3 293 514.2 290C557 287 600 291 642.8 293C685.7 295 728.3 295 771.2 302C814 309 857 323 878.5 330L900 337L900 185L878.5 182C857 179 814 173 771.2 167C728.3 161 685.7 155 642.8 157C600 159 557 169 514.2 176C471.3 183 428.7 187 385.8 188C343 189 300 187 257.2 188C214.3 189 171.7 193 128.8 187C86 181 43 165 21.5 157L0 149Z" fill="#688bec"></path><path d="M0 319L21.5 327C43 335 86 351 128.8 357C171.7 363 214.3 359 257.2 358C300 357 343 359 385.8 356C428.7 353 471.3 345 514.2 345C557 345 600 353 642.8 357C685.7 361 728.3 361 771.2 367C814 373 857 385 878.5 391L900 397L900 335L878.5 328C857 321 814 307 771.2 300C728.3 293 685.7 293 642.8 291C600 289 557 285 514.2 288C471.3 291 428.7 301 385.8 303C343 305 300 299 257.2 301C214.3 303 171.7 313 128.8 307C86 301 43 279 21.5 268L0 257Z" fill="#7395f7"></path><path d="M0 481L21.5 481C43 481 86 481 128.8 481C171.7 481 214.3 481 257.2 482C300 483 343 485 385.8 484C428.7 483 471.3 479 514.2 481C557 483 600 491 642.8 491C685.7 491 728.3 483 771.2 481C814 479 857 483 878.5 485L900 487L900 395L878.5 389C857 383 814 371 771.2 365C728.3 359 685.7 359 642.8 355C600 351 557 343 514.2 343C471.3 343 428.7 351 385.8 354C343 357 300 355 257.2 356C214.3 357 171.7 361 128.8 355C86 349 43 333 21.5 325L0 317Z" fill="#688bec"></path><path d="M0 535L21.5 532C43 529 86 523 128.8 521C171.7 519 214.3 521 257.2 523C300 525 343 527 385.8 528C428.7 529 471.3 529 514.2 532C557 535 600 541 642.8 541C685.7 541 728.3 535 771.2 535C814 535 857 541 878.5 544L900 547L900 485L878.5 483C857 481 814 477 771.2 479C728.3 481 685.7 489 642.8 489C600 489 557 481 514.2 479C471.3 477 428.7 481 385.8 482C343 483 300 481 257.2 480C214.3 479 171.7 479 128.8 479C86 479 43 479 21.5 479L0 479Z" fill="#2b5ab4"></path><path d="M0 559L21.5 559C43 559 86 559 128.8 559C171.7 559 214.3 559 257.2 559C300 559 343 559 385.8 560C428.7 561 471.3 563 514.2 565C557 567 600 569 642.8 568C685.7 567 728.3 563 771.2 563C814 563 857 567 878.5 569L900 571L900 545L878.5 542C857 539 814 533 771.2 533C728.3 533 685.7 539 642.8 539C600 539 557 533 514.2 530C471.3 527 428.7 527 385.8 526C343 525 300 523 257.2 521C214.3 519 171.7 517 128.8 519C86 521 43 527 21.5 530L0 533Z" fill="#002e7e"></path><path d="M0 601L21.5 601C43 601 86 601 128.8 601C171.7 601 214.3 601 257.2 601C300 601 343 601 385.8 601C428.7 601 471.3 601 514.2 601C557 601 600 601 642.8 601C685.7 601 728.3 601 771.2 601C814 601 857 601 878.5 601L900 601L900 569L878.5 567C857 565 814 561 771.2 561C728.3 561 685.7 565 642.8 566C600 567 557 565 514.2 563C471.3 561 428.7 559 385.8 558C343 557 300 557 257.2 557C214.3 557 171.7 557 128.8 557C86 557 43 557 21.5 557L0 557Z" fill="#000000"></path></svg>